<svg width="24" height="24" viewBox="0 0 24 24" fill="none" xmlns="http://www.w3.org/2000/svg">
	<path d="M18.75 6.75C19.1642 6.33579 19.1642 5.66421 18.75 5.25C18.3358 4.83579 17.6642 4.83579 17.25 5.25L12 10.5L6.75 5.25C6.33579 4.83579 5.66421 4.83579 5.25 5.25C4.83579 5.66421 4.83579 6.33579 5.25 6.75L10.5 12L5.25 17.25C4.83579 17.6642 4.83579 18.3358 5.25 18.75C5.66421 19.1642 6.33579 19.1642 6.75 18.75L12 13.5L17.25 18.75C17.6642 19.1642 18.3358 19.1642 18.75 18.75C19.1642 18.3358 19.1642 17.6642 18.75 17.25L13.5 12L18.75 6.75Z" fill="#666666"/>
</svg>
